<?xml version="1.0" encoding="UTF-8"?>
<svg width="1057px" height="612px" viewBox="0 0 1057 612" version="1.1" xmlns="http://www.w3.org/2000/svg" xmlns:xlink="http://www.w3.org/1999/xlink">
    <!-- Generator: Sketch 63.1 (92452) - https://sketch.com -->
    <title>Resizable and Fixed Logo SVG</title>
    <desc>Created with Sketch.</desc>
    <g id="Resizable-and-Fixed-Logo-SVG" stroke="none" stroke-width="1" fill="none" fill-rule="evenodd">
        <g id="Group" transform="translate(2.000000, 2.000000)" fill="#000000" stroke="#000000" stroke-width="3">
            <path d="M425.7,448.789474 C425.7,519.13311 482.470294,576.157895 552.5,576.157895 C598.086084,576.157895 638.053617,551.994185 660.400762,515.722407 C669.596703,521.055298 679.05248,525.890116 688.730879,530.210036 C661.08009,576.795734 610.417855,608 552.5,608 C464.962867,608 394,536.719019 394,448.789474 L425.7,448.789474 Z M400.988073,115.313464 C407.803555,119.106098 414.419839,123.286716 420.814633,127.843911 L428.908896,133.612165 C426.809245,142.805132 425.7,152.377709 425.7,162.210526 C425.7,231.756104 481.189467,288.283325 550.121693,289.556992 L550.122,321.401 L549.878913,321.399723 C463.550706,319.993768 394,249.260777 394,162.210526 C394,145.887985 396.445327,130.139142 400.988073,115.313464 Z M552.5,3 C640.037133,3 711,74.2809806 711,162.210526 L679.3,162.210526 C679.3,91.8668898 622.529706,34.8421053 552.5,34.8421053 C550.099995,34.8421053 547.715564,34.9090819 545.348458,35.0412758 L513.242794,11.1219751 C512.184705,10.3335649 511.122752,9.55127568 510.056981,8.77513043 C523.564152,5.01058604 537.798325,3 552.5,3 Z" id="Combined-Shape"></path>
            <path d="M300.353193,0 C367.268916,0 429.073673,22.0390572 479.001814,59.3031639 C470.29194,65.6786401 462.42689,73.141908 455.597919,81.4964858 C411.754685,50.1969202 358.187077,31.8002628 300.353193,31.8002628 C155.635794,31.8002628 37.6315823,146.990507 31.8004432,291.300278 C68.9555212,304.825449 135.738914,315.154357 216.567802,319.439667 L216.566906,352.077795 C136.184026,347.816134 69.6921574,337.577545 32.4244309,324.1661 C43.3821105,463.539483 159.152274,573.199737 300.353193,573.199737 L301.933,573.186 L301.935231,604.995892 C301.408205,604.99863 300.880858,605 300.353193,605 C134.472705,605 0,469.566137 0,302.5 C0,135.433863 134.472705,0 300.353193,0 Z" id="Combined-Shape"></path>
            <path d="M808.230666,0 C943.413036,0 1053,111.099188 1053,248.146982 C1053,381.182305 949.736049,489.766221 820.0363,496.010399 L820.03626,608 L788.554674,608 L788.554298,495.50383 C749.791765,492.378006 713.57305,480.097142 682.00239,460.794512 L692.904851,430.074318 C720.963839,448.393342 753.534973,460.222733 788.554327,463.470083 L788.55475,0.790096667 C788.556087,0.789988907 788.557423,0.789881158 788.558759,0.789773419 C795.048061,0.266594191 801.608654,0 808.230666,0 Z M820.037548,32.24171 L820.037548,464.052253 C932.341541,457.840417 1021.51841,363.551595 1021.51841,248.146982 C1021.51841,132.742368 932.341541,38.4535464 820.037548,32.24171 Z" id="Combined-Shape"></path>
        </g>
    </g>
</svg>